Love for All and Sharing is the first step to solving all the problems of humanity.

Website I want to share. 
               
   http://www.scenetime.com
 
 
  Credit to EVERYONE for sharing and seeding back
 especially to SCENETIME.COM where i get all my 
 downloads.


 support www.scenetime.com to grow faster.

                             
                                                            
                                                   

.                 ..................................NFO:....................................*******************************************************************************
                A.Previous.Engagement.2008.DVDRip.AC3.X264-BARC0DE
*******************************************************************************

-------------------------------------------------------------------------------
                              General Information
-------------------------------------------------------------------------------
Type.................: Movie
Name.................: A Previous Engagement
Movie Information....: http://www.imdb.com/title/tt0411234/
Genre................: Comedy | Romance
-------------------------------------------------------------------------------
                                    PLOT
-------------------------------------------------------------------------------
When Julia Reynolds talks her husband into a family vacation in Malta she has a 
secret agenda: a date made twenty-five years earlier with her first love. 

-------------------------------------------------------------------------------
                                    CAST
-------------------------------------------------------------------------------
Juliet Stevenson	... 	Julia Reynolds
Tchky Karyo	... 	Alex Belmont
Daniel Stern	... 	Jack Reynolds
Valerie Mahaffey	... 	Grace
Claire Brosseau	... 	Jenny Reynolds
Hendrik Jansen	... 	Hendrik
Kate Miles	... 	Samantha
Jacquelyn Renner	... 	Tracey
Derek Riddell	... 	Hotel Desk Clerk
Daniela Saioni	... 	Woman in Cafe
Pierre Stafrace	... 	Store Clerk
Elizabeth Whitmere	... 	Jill Reynolds
Simon Woods	... 	Tyler

-------------------------------------------------------------------------------
                                    MEDiA iNFO
-------------------------------------------------------------------------------

General
Complete name                    : A.Previous.Engagement.2008.DVDRip.AC3.X264-BARC0DE.mkv
Format                           : Matroska
File size                        : 1.47 GiB
Duration                         : 1h 53mn
Overall bit rate                 : 1 861 Kbps

Video
ID                               : 1
Format                           : AVC
Format/Info                      : Advanced Video Codec
Format profile                   : High@L3.0
Format settings, CABAC           : Yes
Format settings, ReFrames        : 3 frames
Muxing mode                      : Container profile=Unknown@3.0
Codec ID                         : V_MPEG4/ISO/AVC
Duration                         : 1h 53mn
Bit rate                         : 1 620 Kbps
Width                            : 720 pixels
Height                           : 384 pixels
Display aspect ratio             : 1.875
Frame rate                       : 25.000 fps
Color space                      : YUV
Chroma subsampling               : 4:2:0
Bit depth                        : 8 bits
Scan type                        : Progressive
Bits/(Pixel*Frame)               : 0.234
Stream size                      : 1.27 GiB (86%)
Writing library                  : x264 core 79

Audio
ID                               : 2
Format                           : AC-3
Format/Info                      : Audio Coding 3
Mode extension                   : CM (complete main)
Codec ID                         : A_AC3
Duration                         : 1h 53mn
Bit rate mode                    : Constant
Bit rate                         : 224 Kbps
Channel(s)                       : 2 channels
Channel positions                : Front: L R
Sampling rate                    : 48.0 KHz
Stream size                      : 181 MiB (12%)
Language                         : English